# xmcd
#
# Track frame offsets:
#	150
#	13246
#	23517
#	36918
#	50644
#	61248
#	74396
#	89071
#	100778
#	113858
#	127783
#	142139
#
# Disc length: 2074 seconds
#
# Revision: 0
# Processed by: cddbd v1.5.2PL0 Copyright (c) Steve Scherf et al.
# Submitted via: EasyCDDAExtractor 16.0.8.2
#
DISCID=a708180c
DTITLE=Πουλόπουλος Γιάννης - Γιάννης Πουλόπουλος 2
DYEAR=1997
DGENRE=Έντεχνη λαϊκή
TTITLE0=Πουλόπουλος Γιάννης - Ένα μαχαίρι [Λίνου Κόκοτου-Άκου Δασκαλόπουλου]
TTITLE1=Πουλόπουλος Γιάννης - Τ' άσπρα πουλιά [Γιάννη Πουλόπουλου]
TTITLE2=Πουλόπουλος Γιάννης - Μην κλείσεις το παράθυρο [Μ. Πλέσσα-Ά. Δασκαλόπο
TTITLE2=υλου]
TTITLE3=Πουλόπουλος Γιάννης - Δεν σε μπορώ [Νίκου Καλλίτση-Κώστα Λιακάκου]
TTITLE4=Πουλόπουλος Γιάννης - Μικρός διαβάτης [Γιάννη Πουλόπουλου]
TTITLE5=Πουλόπουλος Γιάννης-Κλάδη Ελένη - Μιά φορά μονάχα φτάνει [Γιάννη Σπανο
TTITLE5=ύ-Κώστα Κινδύνη]
TTITLE6=Πουλόπουλος Γιάννης - Μην τού μιλάτε του παιδιού [Μ. Πλέσσα-Λ. Παπαδόπ
TTITLE6=ουλου]
TTITLE7=Πουλόπουλος Γιάννης - Ήρθες εψές [Γιάννη Σπανού-Σωτήρη Σκίπη]
TTITLE8=Πουλόπουλος Γιάννης - Του σπιτιού μου το στενό [Γιάννη Πουλόπουλου]
TTITLE9=Πουλόπουλος Γιάννης - Γλυκειά μου αγάπη [Μίμη Πλέσσα-Δημήτρη Χριστοδού
TTITLE9=λου]
TTITLE10=Πουλόπουλος Γιάννης - Κι αν περπατώ [Γιάννη Σπανού-Άκου Δασκαλόπουλου
TTITLE10=]
TTITLE11=Πουλόπουλος Γιάννης - Τα φιλιά [Μίμη Πλέσσα-Δημήτρη Χριστοδούλου]
EXTD=
EXTT0=
EXTT1=
EXTT2=
EXTT3=
EXTT4=
EXTT5=
EXTT6=
EXTT7=
EXTT8=
EXTT9=
EXTT10=
EXTT11=
PLAYORDER=
